<svg id="Layer_1" enable-background="new 0 0 512 512" viewBox="0 0 512 512" xmlns="http://www.w3.org/2000/svg"><g clip-rule="evenodd" fill-rule="evenodd"><path d="m317.622 344.983h28.34v12.902h-28.34zm57.827 0h28.331v12.902h-28.331zm57.823 0h28.331v12.902h-28.331zm-87.31 44.413v12.897h-28.34v-12.897zm29.487 0h28.331v12.897h-28.331zm57.823 0h28.331v12.897h-28.331zm-87.31 44.404v12.897h-28.34v-12.897zm29.487 0h28.331v12.897h-28.331zm57.823 0h28.331v12.897h-28.331zm-289.57-105.152c0 16.736-13.612 30.359-30.375 30.364-16.741-.005-30.358-13.622-30.358-30.364 0-16.747 13.627-30.369 30.373-30.369 16.741 0 30.36 13.63 30.36 30.369zm184.7-270.079v-27.142l27.16 27.142z" fill="#9bc9ff"/><path d="m457.602 437.799h-20.331v4.897h20.331zm15.997-1.666v8.235c0 7.902-6.428 14.33-14.33 14.33h-23.669c-7.897 0-14.33-6.428-14.33-14.33v-8.235c0-7.902 6.433-14.33 14.33-14.33h23.669c7.902 0 14.33 6.428 14.33 14.33zm-73.819 1.666h-20.331v4.897h20.331zm16.001-1.666v8.235c0 7.902-6.433 14.33-14.33 14.33h-23.669c-7.902 0-14.33-6.428-14.33-14.33v-8.235c0-7.902 6.428-14.33 14.33-14.33h23.669c7.898 0 14.33 6.428 14.33 14.33zm-73.819 1.666h-20.34v4.897h20.34zm15.997-1.666v8.235c0 7.902-6.428 14.33-14.335 14.33h-23.674c-7.897 0-14.33-6.428-14.33-14.33v-8.235c0-7.902 6.433-14.33 14.33-14.33h23.674c7.907 0 14.335 6.428 14.335 14.33zm99.643-42.737h-20.331v4.897h20.331zm15.997-1.671v8.235c0 7.902-6.428 14.33-14.33 14.33h-23.669c-7.897 0-14.33-6.428-14.33-14.33v-8.235c0-7.902 6.433-14.33 14.33-14.33h23.669c7.902 0 14.33 6.428 14.33 14.33zm-73.819 1.671h-20.331v4.897h20.331zm16.001-1.671v8.235c0 7.902-6.433 14.33-14.33 14.33h-23.669c-7.902 0-14.33-6.428-14.33-14.33v-8.235c0-7.902 6.428-14.33 14.33-14.33h23.669c7.898 0 14.33 6.428 14.33 14.33zm-73.819 1.671h-20.34v4.897h20.34zm15.997-1.671v8.235c0 7.902-6.428 14.33-14.335 14.33h-23.674c-7.897 0-14.33-6.428-14.33-14.33v-8.235c0-7.902 6.433-14.33 14.33-14.33h23.674c7.907 0 14.335 6.428 14.335 14.33zm99.643-42.742h-20.331v4.902h20.331zm15.997-1.662v8.231c0 7.902-6.428 14.335-14.33 14.335h-23.669c-7.897 0-14.33-6.433-14.33-14.335v-8.231c0-7.907 6.433-14.335 14.33-14.335h23.669c7.902.001 14.33 6.428 14.33 14.335zm-73.819 1.662h-20.331v4.902h20.331zm16.001-1.662v8.231c0 7.902-6.433 14.335-14.33 14.335h-23.669c-7.902 0-14.33-6.433-14.33-14.335v-8.231c0-7.907 6.428-14.335 14.33-14.335h23.669c7.898.001 14.33 6.428 14.33 14.335zm-73.819 1.662h-20.34v4.902h20.34zm15.997-1.662v8.231c0 7.902-6.428 14.335-14.335 14.335h-23.674c-7.897 0-14.33-6.433-14.33-14.335v-8.231c0-7.907 6.433-14.335 14.33-14.335h23.674c7.907.001 14.335 6.428 14.335 14.335zm99.643-66.016h-135.98v21.519h135.98zm15.997-1.667v24.857c0 7.902-6.428 14.33-14.33 14.33h-139.319c-7.897 0-14.33-6.428-14.33-14.33v-24.857c0-7.902 6.433-14.335 14.33-14.335h139.319c7.902.001 14.33 6.433 14.33 14.335zm14.4-18.325v201.382c0 10.776-8.766 19.542-19.551 19.542h-157.677c-10.78 0-19.542-8.766-19.542-19.542v-201.382c0-10.776 8.762-19.547 19.542-19.547h157.677c10.785 0 19.551 8.771 19.551 19.547zm-212.767 78.904v-20.941h-62.321c2.32 6.7 3.986 13.705 4.911 20.941zm-72.561 13.41c0-49.259-40.079-89.333-89.342-89.333-49.249 0-89.328 40.074-89.328 89.333 0 19.776 6.47 38.074 17.391 52.888 7.17-21.246 23.359-38.046 43.878-46.169-8.762-7.766-14.297-19.096-14.297-31.698 0-23.359 18.997-42.366 42.371-42.366 23.359 0 42.356 19.007 42.356 42.366 0 12.602-5.54 23.932-14.297 31.698 20.518 8.123 36.708 24.923 43.878 46.169 10.92-14.814 17.39-33.111 17.39-52.888zm-89.342 1.385c-14.537-.004-26.359-11.832-26.359-26.364 0-14.537 11.832-26.369 26.374-26.369 14.527 0 26.359 11.832 26.359 26.369 0 14.532-11.823 26.359-26.35 26.364-.01 0-.01 0-.024 0zm0 87.948c-22.617 0-43.3-8.456-59.048-22.368 4.949-28.524 29.66-49.573 59.048-49.578h.014.009c29.378.005 54.09 21.054 59.039 49.578-15.753 13.911-36.431 22.368-59.062 22.368zm92.502-139.685c-4.55-8.33-10.198-15.978-16.739-22.753h86.14v22.753zm-84.501-273.511v218.829c17.593 1.329 33.98 6.996 48.113 15.926h105.79v-3.207c0-7.217 2.16-13.931 5.869-19.547h-132.732c-4.418 0-8.001-3.582-8.001-7.996 0-4.423 3.582-8.001 8.001-8.001h208.842v-155.197h-29.519c-6.221 0-11.292-5.066-11.292-11.287v-29.52zm211.072 24.805v-13.49l13.499 13.49zm171.599 206.744v201.382c0 19.598-15.95 35.543-35.553 35.543h-157.677c-19.603 0-35.539-15.945-35.539-35.543v-106.476h-56.592c-1.39 56.888-48.089 102.743-105.311 102.743-58.076 0-105.33-47.254-105.33-105.334 0-55.39 42.981-100.93 97.334-105.034v-220.248c0-8.043 6.55-14.584 14.589-14.584h201.752c3.958 0 7.517 1.479 10.306 4.273l36.961 36.952c2.789 2.794 4.268 6.357 4.268 10.311v160.471h95.24c19.602 0 35.552 15.946 35.552 35.544zm-264.251-137.375c3.601-.084 6.531-1.353 7.569-2.559.282-.324.531-.695.404-1.7-.132-1.127-.451-3.766-9.701-5.282-18.039-2.963-21.223-13.433-21.509-19.41-.451-9.32 5.4-17.208 14.757-20.26v-.554c0-4.418 3.583-8.001 8.001-8.001s8.001 3.583 8.001 8.001v.446c6.419 2.085 11.738 6.775 14.509 13.363 1.714 4.071-.207 8.761-4.277 10.471-4.08 1.714-8.771-.202-10.48-4.277-2.033-4.85-7.16-5.104-9.874-4.489-1.136.258-4.808 1.343-4.658 4.526.099 2.047 2.831 3.526 8.118 4.395 14.001 2.301 21.735 8.738 23.002 19.143.639 5.315-.798 10.189-4.179 14.095-2.901 3.348-7.202 5.822-12.161 7.104v.253c0 4.418-3.582 8.001-8.001 8.001-4.418 0-8.001-3.582-8.001-8.001v-.394c-8.109-2.381-14.241-8.334-16.25-16.363-1.056-4.287 1.54-8.63 5.832-9.696 4.291-1.071 8.63 1.535 9.7 5.827 1.018 4.093 5.578 5.45 9.198 5.361zm-43.859-17.251c0-23.923 19.457-43.385 43.38-43.385 23.918 0 43.389 19.462 43.389 43.385s-19.472 43.385-43.389 43.385c-23.923 0-43.38-19.462-43.38-43.385zm-16.002 0c0-32.745 26.641-59.386 59.381-59.386 32.75 0 59.391 26.641 59.391 59.386s-26.641 59.386-59.391 59.386c-32.74 0-59.381-26.641-59.381-59.386zm-39.52 88.328c0-4.418 3.582-8.001 8.001-8.001h181.811c4.409 0 8.001 3.583 8.001 8.001s-3.592 8.001-8.001 8.001h-181.811c-4.419 0-8.001-3.583-8.001-8.001z" fill="#57a4ff"/></g></svg>